<svg width="350" height="28" xmlns="http://www.w3.org/2000/svg" xmlns:xlink="http://www.w3.org/1999/xlink"><defs><path id="a" d="M.004.118h26.392v26.427H.004V.118z"/></defs><g fill="none" fill-rule="evenodd"><path d="M63.706 1.105c0-.367.312-.595.68-.595h.917l15.27 16.286h.16V1.509c0-.367.17-.629.574-.629h3.377c.367 0 .86.262.86.629v24.703c0 .367-.493.578-.86.578h-.882L68.46 10.134h.058v15.675c0 .367-.388.61-.793.61h-3.34c-.367 0-.679-.243-.679-.61V1.105zM113.748 17.906l-3.67-8.143h-.11l-3.598 8.143h7.378zM97.891 25.51L109.307.859c.11-.22.293-.349.623-.349h.368c.367 0 .514.15.624.37l11.306 24.645c.22.477-.074.895-.625.895h-3.193c-.55 0-.808-.092-1.064-.606l-1.8-3.836h-10.975l-1.799 3.836c-.146.367-.476.606-1.063.606h-3.193c-.551 0-.845-.434-.625-.911zM136.994 5.322h-5.78c-.403 0-.513-.436-.513-.803V1.51c0-.367.11-.63.514-.63h16.04c.404 0 .843.263.843.63v3.01c0 .367-.44.803-.843.803h-5.45v20.487c0 .367-.496.61-.864.61h-3.413c-.367 0-.534-.243-.534-.61V5.322zM160.682 1.509c0-.367.222-.629.59-.629h3.487c.403 0 .735.262.735.629v15.013c0 3.12 2.155 5.579 5.348 5.579 3.194 0 5.386-2.46 5.386-5.542V1.509c0-.367.203-.629.607-.629h3.486c.368 0 .72.262.72.629v15.27c0 5.58-4.398 10.094-10.199 10.094-5.762 0-10.16-4.515-10.16-10.094V1.509zM207.295 12.354c1.945 0 3.633-1.553 3.633-3.608 0-1.945-1.688-3.424-3.633-3.424h-5.897v7.032h5.897zM196.585 1.51c0-.367.212-.63.615-.63h10.498c4.405 0 8.002 3.491 8.002 7.858 0 3.378-2.24 6.113-5.432 7.398l5.028 9.272c.257.477 0 1.013-.624 1.013h-3.854c-.33 0-.513-.152-.587-.299l-4.882-9.695h-3.951v9.383c0 .367-.454.61-.82.61H197.2c-.403 0-.614-.243-.614-.61v-24.3zM230.269 1.509c0-.367.143-.629.546-.629h14.94c.404 0 .8.262.8.629v3.01c0 .367-.396.803-.8.803H234.71v5.922h9.246c.368 0 .748.323.748.69v3.046c0 .404-.38.705-.748.705h-9.246v6.293h11.045c.404 0 .8.453.8.82v3.01c0 .368-.396.612-.8.612h-14.94c-.403 0-.546-.244-.546-.611v-24.3zM270.049 22.348c1.836 0 3.303-1.495 3.303-3.404 0-1.836-1.834-3.258-3.743-3.258h-4.178v6.662h4.618zm-.513-10.734c1.872 0 3.156-1.403 3.156-3.238 0-1.836-1.284-3.054-3.156-3.054h-4.105v6.292h4.105zM260.99 1.51c0-.367.176-.629.58-.629h8.406c4.368 0 7.745 2.902 7.745 6.756 0 2.827-2.313 5.012-4.038 5.82 1.945.624 4.772 2.555 4.772 5.931 0 4.111-3.524 7.032-8.002 7.032h-8.883c-.404 0-.58-.243-.58-.61v-24.3z" fill="#EF5E12"/><g transform="translate(290.851 .327)"><mask id="b" fill="#fff"><use xlink:href="#a"/></mask><path d="M13.181 21.774c4.625 0 8.443-3.78 8.443-8.405s-3.818-8.48-8.443-8.48-8.405 3.855-8.405 8.48 3.78 8.405 8.405 8.405m0-21.656c7.341 0 13.215 5.909 13.215 13.25 0 7.342-5.874 13.177-13.215 13.177S.004 20.71.004 13.37C.004 6.027 5.84.118 13.181.118" fill="#EF5E12" mask="url(#b)"/></g><path d="M336.255 13.328l-7.341-11.454c-.295-.478 0-.994.623-.994h4.258c.294 0 .477.199.587.346l4.698 7.797h.037l4.772-7.797a.685.685 0 0 1 .587-.346h4.259c.623 0 .917.516.623.994l-7.378 11.471 7.635 12.099c.294.514 0 .976-.624.976h-3.964c-.294 0-.551-.072-.625-.22l-5.248-8.294h-.11l-5.175 8.295c-.11.147-.33.219-.625.219h-3.964c-.66 0-.954-.508-.66-.985l7.635-12.107zM48.304 27.221l2.172.538s-.51-.517-1.931-1.19c-2.016-.832-5.334-2.048-9.872-2.927l-.065-.013-2.141-.4c-3.234-.514-6.592-.881-9.987-.881h-.006l-2.32.023a71.16 71.16 0 0 0-9.987.876l-2.143.385-.06.014c-4.54.882-7.244 1.77-9.626 2.773C.89 27.03 0 27.9 0 27.9s1.711-.52 2.288-.672c7.48-1.97 15.293-2.65 23.068-2.65 7.763 0 15.482.89 22.948 2.643M25.118 14.45c.605 0 1.225-.491 1.225-1.097V1.806c0-.607-.62-1.098-1.225-1.098-.605 0-1.225.491-1.225 1.098v11.547c0 .606.62 1.097 1.225 1.097M35.866 19.064c.28 0 .563-.107.775-.32l8.168-8.167a1.096 1.096 0 1 0-1.55-1.552l-8.167 8.166a1.096 1.096 0 0 0 .774 1.873M13.833 18.32a1.094 1.094 0 0 0 1.55 0c.43-.427.43-1.123 0-1.551L7.218 8.603a1.097 1.097 0 0 0-1.55 1.552l8.165 8.166zM18.197 15.015a1.1 1.1 0 0 0 2.029-.84l-2.25-5.424a1.098 1.098 0 0 0-2.029.84l2.25 5.424zM30.617 15.618a1.1 1.1 0 0 0 1.434-.595l2.452-5.93a1.098 1.098 0 0 0-2.029-.84l-2.452 5.931c-.23.56.035 1.201.595 1.434" fill="#EF5E12"/></g></svg>